0
SECTION
2
HEADER
9
$INSUNITS
70
4
9
$ACADVER
1
AC1014
9
$HANDSEED
5
FFFF
0
ENDSEC
0
SECTION
2
TABLES
0
TABLE
2
VPORT
5
8
100
AcDbSymbolTable
0
ENDTAB
0
TABLE
2
LTYPE
5
5
100
AcDbSymbolTable
0
LTYPE
5
14
100
AcDbSymbolTableRecord
100
AcDbLinetypeTableRecord
2
BYBLOCK
70
0
0
LTYPE
5
15
100
AcDbSymbolTableRecord
100
AcDbLinetypeTableRecord
2
BYLAYER
70
0
0
ENDTAB
0
TABLE
2
LAYER
5
2
100
AcDbSymbolTable
70
2
0
LAYER
5
50
100
AcDbSymbolTableRecord
100
AcDbLayerTableRecord
2
0
70
0
6
CONTINUOUS
0
ENDTAB
0
TABLE
2
STYLE
5
3
100
AcDbSymbolTable
70
1
0
STYLE
5
11
100
AcDbSymbolTableRecord
100
AcDbTextStyleTableRecord
2
STANDARD
70
0
0
ENDTAB
0
TABLE
2
VIEW
5
6
100
AcDbSymbolTable
70
0
0
ENDTAB
0
TABLE
2
UCS
5
7
100
AcDbSymbolTable
70
0
0
ENDTAB
0
TABLE
2
APPID
5
9
100
AcDbSymbolTable
70
2
0
APPID
5
12
100
AcDbSymbolTableRecord
100
AcDbRegAppTableRecord
2
ACAD
70
0
0
ENDTAB
0
TABLE
2
DIMSTYLE
5
A
100
AcDbSymbolTable
70
1
0
ENDTAB
0
TABLE
2
BLOCK_RECORD
5
1
100
AcDbSymbolTable
70
1
0
BLOCK_RECORD
5
1F
100
AcDbSymbolTableRecord
100
AcDbBlockTableRecord
2
*MODEL_SPACE
0
BLOCK_RECORD
5
1B
100
AcDbSymbolTableRecord
100
AcDbBlockTableRecord
2
*PAPER_SPACE
0
ENDTAB
0
ENDSEC
0
SECTION
2
BLOCKS
0
BLOCK
5
20
100
AcDbEntity
100
AcDbBlockBegin
2
*MODEL_SPACE
0
ENDBLK
5
21
100
AcDbEntity
100
AcDbBlockEnd
0
BLOCK
5
1C
100
AcDbEntity
100
AcDbBlockBegin
2
*PAPER_SPACE
0
ENDBLK
5
1D
100
AcDbEntity
100
AcDbBlockEnd
0
ENDSEC
0
SECTION
2
ENTITIES
0
LWPOLYLINE
5
100
100
AcDbEntity
8
0
100
AcDbPolyline
90
4
70
1
43
0.0
10
-7.0000000000000009
20
31.490000000000002
10
7.0000000000000009
20
31.490000000000002
10
7.0000000000000009
20
27.490000000000002
10
-7.0000000000000009
20
27.490000000000002
0
LWPOLYLINE
5
101
100
AcDbEntity
8
0
100
AcDbPolyline
90
4
70
1
43
0.0
10
-27.307038350034219
20
-7.6828221735089217
10
-20.307038350034226
20
-19.807177826491067
10
-23.771139965171983
20
-21.807177826491063
10
-30.771139965171976
20
-9.6828221735089208
0
LWPOLYLINE
5
102
100
AcDbEntity
8
0
100
AcDbPolyline
90
4
70
1
43
0.0
10
20.307038350034212
20
-19.807177826491078
10
27.307038350034212
20
-7.6828221735089377
10
30.771139965171965
20
-9.6828221735089368
10
23.771139965171962
20
-21.807177826491078
0
LWPOLYLINE
5
103
100
AcDbEntity
8
0
100
AcDbPolyline
90
30
70
1
43
0.0
10
-31.771139965171976
20
-7.9507713659400441
10
-28.307038350034219
20
-5.950771365940045
42
-0.41421356237309537
10
-25.574987542465344
20
-6.6828221735089226
10
-18.574987542465355
20
-18.807177826491067
42
-0.41421356237309337
10
-19.307038350034233
20
-21.539228634059949
10
-22.771139965171983
20
-23.539228634059942
10
-24.50296321067902
20
-24.539097251042278
42
0.51053287344855525
10
-24.836464669440961
20
-27.761709650589093
42
0.38203063421846017
10
24.836464669440939
20
-27.761709650589118
42
0.51053287344855913
10
24.502963210679006
20
-24.5390972510423
10
22.771139965171962
20
-23.539228634059953
10
19.307038350034212
20
-21.539228634059953
42
-0.41421356237309626
10
18.574987542465337
20
-18.807177826491074
10
25.57498754246533
20
-6.6828221735089377
42
-0.41421356237309437
10
28.307038350034219
20
-5.9507713659400574
10
31.771139965171965
20
-7.9507713659400592
10
33.502963210679006
20
-8.9506399829224019
42
0.51053287344855869
10
36.460578144618246
20
-7.6281545186360127
42
0.38203063421846029
10
11.624113475177305
20
35.389864169225085
42
0.51053287344856113
10
9.0000000000000018
20
33.489737233964675
10
9.0000000000000018
20
31.490000000000002
10
9
20
27.490000000000002
42
-0.41421356237309587
10
7.0000000000000018
20
25.489999999999998
10
-7.0000000000000018
20
25.489999999999998
42
-0.41421356237309587
10
-9
20
27.490000000000002
10
-9.0000000000000018
20
31.490000000000002
10
-9.0000000000000018
20
33.489737233964675
42
0.5105328734485618
10
-11.624113475177309
20
35.389864169225092
42
0.38203063421845995
10
-36.460578144618253
20
-7.6281545186359656
42
0.51053287344856213
10
-33.502963210679006
20
-8.9506399829223824
0
ENDSEC
0
SECTION
2
OBJECTS
0
DICTIONARY
5
C
100
AcDbDictionary
3
ACAD_GROUP
350
D
3
ACAD_MLINESTYLE
350
17
0
DICTIONARY
5
D
100
AcDbDictionary
0
DICTIONARY
5
1A
330
C
100
AcDbDictionary
0
DICTIONARY
5
17
100
AcDbDictionary
0
ENDSEC
0
EOF
